# xmcd
#
# Track frame offsets: 
#        150
#        18906
#        37864
#        51904
#        64140
#        81356
#        100490
#        125924
#        137614
#        155824
#        171986
#
# Disc length: 2495 seconds
#
# Revision: 1
# Processed by: cddbd v1.5.2PL0 Copyright (c) Steve Scherf et al.
# Submitted via: ExactAudioCopy v1.0b1
#
DISCID=9a09bd0b
DTITLE=Bel Airs - Got Love
DYEAR=1900
DGENRE=Americana
TTITLE0=Got Love If You Want It
TTITLE1=The Blues Is Walkin'
TTITLE2=What Kind Of Fool (Do You Think I Am)
TTITLE3=Just You And I
TTITLE4=Wild About You Baby
TTITLE5=Poor Man Rich Man
TTITLE6=Going To The River
TTITLE7=These Lonely, Lonely Nights
TTITLE8=Hi Line
TTITLE9=How Are You Fixed For Love
TTITLE10=Succotash
EXTD=
EXTT0=
EXTT1=
EXTT2=
EXTT3=
EXTT4=
EXTT5=
EXTT6=
EXTT7=
EXTT8=
EXTT9=
EXTT10=
PLAYORDER=
